<?xml version="1.0" encoding="UTF-8"?>
<svg version="1.1" xmlns="http://www.w3.org/2000/svg" width="500" height="500">
<path d="M0 0 C0.57105469 0.12117188 1.14210938 0.24234375 1.73046875 0.3671875 C8.78590744 1.82538628 15.87337286 2.94999538 23 4 C23 4.66 23 5.32 23 6 C23.78761719 6.04898437 24.57523438 6.09796875 25.38671875 6.1484375 C31.32307537 6.5559034 37.22717395 7.078893 43.125 7.875 C44.70667969 8.08769531 44.70667969 8.08769531 46.3203125 8.3046875 C49.23304509 9.06046943 50.28824213 9.55700576 52 12 C52.73046875 14.26171875 52.73046875 14.26171875 53.1875 16.6875 C53.34605469 17.49574219 53.50460938 18.30398438 53.66796875 19.13671875 C53.77753906 19.75160156 53.88710937 20.36648438 54 21 C54.66 21 55.32 21 56 21 C56.515625 22.0725 57.03125 23.145 57.5625 24.25 C61.88602718 34.44810785 61.88602718 34.44810785 69 42 C70.00084333 43.66616038 71.00070155 45.33291261 72 47 C74.05597145 49.40190928 76.19912653 51.69996448 78.35546875 54.01171875 C80 56 80 56 80 58 C80.556875 58.226875 81.11375 58.45375 81.6875 58.6875 C84.66159588 60.37550036 86.72008865 62.46676517 89 65 C89 65.66 89 66.32 89 67 C90.0828125 67.37125 90.0828125 67.37125 91.1875 67.75 C94.919825 69.40881111 97.73914771 71.68871362 100.5625 74.625 C102.22546327 76.21566052 103.91031534 77.06324481 106 78 C106 78.66 106 79.32 106 80 C106.8353125 80.185625 106.8353125 80.185625 107.6875 80.375 C110.22114364 81.05976855 112.57921032 81.99133763 115 83 C115 83.66 115 84.32 115 85 C115.66 85.0825 116.32 85.165 117 85.25 C119.57539447 85.89384862 121.31299956 86.59941335 123.625 87.8125 C128.58355866 90.3798285 133.71776965 92.21152831 139 94 C140.02351562 94.35320312 141.04703125 94.70640625 142.1015625 95.0703125 C149.98978594 97.6613348 157.75799026 99.06088045 166 100 C166 100.66 166 101.32 166 102 C185.0401059 102.40589108 185.0401059 102.40589108 204 101 C204.33 100.67 204.66 100.34 205 100 C208.64284934 99.37074611 212.28854884 98.8086326 215.94726562 98.28125 C221.32420796 97.44789043 225.93492478 95.97779128 231 94 C233.69466009 93.45524619 236.25306333 93.2452622 239 93 C239 92.34 239 91.68 239 91 C243.455 90.01 243.455 90.01 248 89 C248 88.34 248 87.68 248 87 C249.11375 86.46375 250.2275 85.9275 251.375 85.375 C255.64640577 83.25449785 259.66848076 80.80724538 263.703125 78.26953125 C266 77 266 77 268.21875 76.453125 C270.23077568 76.16287756 270.23077568 76.16287756 271.25 73.9375 C271.62125 72.9784375 271.62125 72.9784375 272 72 C272.99 72 273.98 72 275 72 C275.33 71.01 275.66 70.02 276 69 C277.671875 67.5703125 277.671875 67.5703125 279.75 66.125 C286.36214803 61.50659126 291.06620346 55.52249408 296.01171875 49.23046875 C296.99591797 48.12638672 296.99591797 48.12638672 298 47 C298.66 47 299.32 47 300 47 C300.66 45.35 301.32 43.7 302 42 C302.66 42 303.32 42 304 42 C304.12375 41.4225 304.2475 40.845 304.375 40.25 C305.00648824 37.97664233 305.88858191 36.0746471 307 34 C307.66 34 308.32 34 309 34 C309.40412109 32.700625 309.40412109 32.700625 309.81640625 31.375 C310.97132104 28.08177764 312.34902736 25.10419081 313.9375 22 C314.69353516 20.515 314.69353516 20.515 315.46484375 19 C315.97144531 18.01 316.47804688 17.02 317 16 C317.50015625 14.91203125 318.0003125 13.8240625 318.515625 12.703125 C320 10 320 10 322.8125 8.75 C324.20056536 8.45995649 325.59887736 8.21841713 327 8 C328.64548828 7.72542969 328.64548828 7.72542969 330.32421875 7.4453125 C336.27921115 6.52137107 341.96396752 5.89221371 348 6 C348 5.34 348 4.68 348 4 C348.55985596 3.91435791 349.11971191 3.82871582 349.6965332 3.74047852 C352.23561208 3.35051939 354.77405368 2.95655484 357.3125 2.5625 C358.19357422 2.42779297 359.07464844 2.29308594 359.98242188 2.15429688 C360.82998047 2.02216797 361.67753906 1.89003906 362.55078125 1.75390625 C363.72120972 1.57323608 363.72120972 1.57323608 364.9152832 1.38891602 C367.18279797 1.01511389 367.18279797 1.01511389 370 0 C371.10844919 3.32534757 370.84454356 5.62182575 370 9 C369.34 9 368.68 9 368 9 C367.855625 10.2375 367.71125 11.475 367.5625 12.75 C367.21311498 15.56504499 366.79620634 18.2701497 366 21 C365.34 21 364.68 21 364 21 C363.95875 22.03125 363.9175 23.0625 363.875 24.125 C363.09054858 30.81093976 359.78276324 36.94089471 357 43 C356.34 43 355.68 43 355 43 C354.855625 43.763125 354.71125 44.52625 354.5625 45.3125 C354 48 354 48 353 51 C352.34 51 351.68 51 351 51 C350.5359375 52.423125 350.5359375 52.423125 350.0625 53.875 C349 57 349 57 348 59 C347.34 59 346.68 59 346 59 C345.34 60.98 344.68 62.96 344 65 C343.34 65 342.68 65 342 65 C341.93554688 65.52464844 341.87109375 66.04929687 341.8046875 66.58984375 C340.63483266 70.09372938 338.39346249 72.70603661 336.125 75.5625 C335.67769531 76.13935547 335.23039062 76.71621094 334.76953125 77.31054688 C332.6419617 80.03119997 330.47941397 82.59828847 328 85 C326.44869392 86.84340951 324.92292557 88.70541209 323.40234375 90.57421875 C322.70818359 91.27998047 322.70818359 91.27998047 322 92 C321.34 92 320.68 92 320 92 C319.34 93.32 318.68 94.64 318 96 C317.34 96 316.68 96 316 96 C315.67 96.99 315.34 97.98 315 99 C314.360625 99.144375 313.72125 99.28875 313.0625 99.4375 C312.381875 99.623125 311.70125 99.80875 311 100 C310.69425049 100.61520508 310.38850098 101.23041016 310.07348633 101.86425781 C308.89387343 104.21114287 307.84827168 105.17652423 305.76171875 106.734375 C304.78887939 107.46587769 304.78887939 107.46587769 303.79638672 108.2121582 C303.1004541 108.719646 302.40452148 109.22713379 301.6875 109.75 C300.96836426 110.28004639 300.24922852 110.81009277 299.50830078 111.35620117 C272.55136817 131 272.55136817 131 263 131 C263 131.66 263 132.32 263 133 C259.38026598 134.31626692 256.90432869 135 253 135 C253 135.66 253 136.32 253 137 C251.89591797 137.29003906 251.89591797 137.29003906 250.76953125 137.5859375 C249.79371094 137.84632813 248.81789063 138.10671875 247.8125 138.375 C246.84957031 138.63023437 245.88664063 138.88546875 244.89453125 139.1484375 C242.02533168 139.94177615 242.02533168 139.94177615 239.44140625 141.03125 C233.21216721 143.50301205 226.65669765 144.28942164 220 144 C220 144.66 220 145.32 220 146 C197.09454245 148.59394464 173.87100986 149.47375649 151 146 C150.67 145.67 150.34 145.34 150 145 C148.67057935 144.68179553 147.32912888 144.41342823 145.984375 144.16796875 C145.15067383 144.01102539 144.31697266 143.85408203 143.45800781 143.69238281 C142.56436523 143.52577148 141.67072266 143.35916016 140.75 143.1875 C132.62177029 141.62694964 124.83787805 139.68890707 117 137 C117 136.34 117 135.68 117 135 C115.329375 134.7834375 115.329375 134.7834375 113.625 134.5625 C110 134 110 134 108 133 C108 132.34 108 131.68 108 131 C106.0509375 130.6596875 106.0509375 130.6596875 104.0625 130.3125 C98.79261246 129.16650858 94.55337143 126.82029153 90 124 C90 123.34 90 122.68 90 122 C89.21625 121.855625 88.4325 121.71125 87.625 121.5625 C85 121 85 121 83 120 C83 119.34 83 118.68 83 118 C81.576875 117.5359375 81.576875 117.5359375 80.125 117.0625 C77 116 77 116 75 115 C75 114.34 75 113.68 75 113 C73.35 112.34 71.7 111.68 70 111 C70 110.34 70 109.68 70 109 C69.195625 108.71125 68.39125 108.4225 67.5625 108.125 C65 107 65 107 64 105 C63.278125 104.58492188 62.55625 104.16984375 61.8125 103.7421875 C58.36370875 101.60585292 55.80825958 99.02591789 53 96.125 C52.49210937 95.60808594 51.98421875 95.09117187 51.4609375 94.55859375 C50.45640996 93.53603623 49.45502558 92.5103801 48.45703125 91.48144531 C47.04031795 90.04099352 45.58303823 88.64079483 44.125 87.2421875 C42 85 42 85 42 83 C41.01 82.67 40.02 82.34 39 82 C38.855625 81.360625 38.71125 80.72125 38.5625 80.0625 C38.2840625 79.0415625 38.2840625 79.0415625 38 78 C37.42636719 77.76023437 36.85273437 77.52046875 36.26171875 77.2734375 C32.99442887 75.43382351 31.29364543 72.60799766 29.25 69.5625 C28.83878906 68.97662109 28.42757812 68.39074219 28.00390625 67.78710938 C25 63.3910273 25 63.3910273 25 60 C23.515 59.505 23.515 59.505 22 59 C20.5 56.3125 20.5 56.3125 19 53 C18.443125 51.948125 17.88625 50.89625 17.3125 49.8125 C16 47 16 47 16 44 C15.34 44 14.68 44 14 44 C-1.10866871 11.91818858 -1.10866871 11.91818858 0 0 Z " fill="#FFDE00" transform="translate(65,291)"/>
<path d="M0 0 C1.32 0 2.64 0 4 0 C4 0.66 4 1.32 4 2 C4.66386719 2.06058594 5.32773437 2.12117188 6.01171875 2.18359375 C14.78207381 3.01581722 14.78207381 3.01581722 19 4 C19 4.66 19 5.32 19 6 C20.258125 6.144375 21.51625 6.28875 22.8125 6.4375 C25.42667123 6.73748686 27.47439892 7.15813297 30 8 C30 8.66 30 9.32 30 10 C31.2684375 10.1546875 31.2684375 10.1546875 32.5625 10.3125 C36.36572147 11.07314429 39.46356184 12.41470014 43 14 C45.65582266 15.03152339 48.32639286 16.01498684 51 17 C51 17.66 51 18.32 51 19 C51.804375 19.226875 52.60875 19.45375 53.4375 19.6875 C57.91285739 21.33631588 61.88721318 23.60544412 66 26 C66 26.66 66 27.32 66 28 C66.99 28.3403125 66.99 28.3403125 68 28.6875 C73.29494938 31.00404035 77.94151466 33.88419142 82 38 C82.66 38.33 83.32 38.66 84 39 C84 39.66 84 40.32 84 41 C85.32 41.66 86.64 42.32 88 43 C88 43.66 88 44.32 88 45 C88.8353125 45.37125 88.8353125 45.37125 89.6875 45.75 C93.63317701 47.88279838 96.92013493 50.75803677 100 54 C102.25680824 51.74319176 102.34623861 51.05631212 102.78125 48.0078125 C102.90113281 47.22019531 103.02101563 46.43257812 103.14453125 45.62109375 C103.26183594 44.79738281 103.37914062 43.97367188 103.5 43.125 C103.73336567 41.50169816 103.9727572 39.87924889 104.21875 38.2578125 C104.32123047 37.5373877 104.42371094 36.81696289 104.52929688 36.07470703 C105.04126984 33.81809589 105.89046559 32.02256503 107 30 C107.99 30 108.98 30 110 30 C110 30.66 110 31.32 110 32 C111.9490625 32.185625 111.9490625 32.185625 113.9375 32.375 C118.71849952 32.89863328 123.33114101 33.86313835 128 35 C128 35.66 128 36.32 128 37 C129.27875 37.103125 130.5575 37.20625 131.875 37.3125 C137.01916102 37.89223878 142.27872983 38.80798171 147 41 C148.15690196 44.47070589 147.79944933 45.1950326 146.6875 48.5625 C144.34329389 56.54140337 143.77131262 64.75149207 143 73 C142.34 73 141.68 73 141 73 C141.11794522 78.10881026 141.24217047 83.21741364 141.37231445 88.32592773 C141.41572573 90.06514288 141.45739612 91.80440235 141.49731445 93.54370117 C141.55486768 96.03838488 141.6186042 98.5328441 141.68359375 101.02734375 C141.70866249 102.2007859 141.70866249 102.2007859 141.73423767 103.39793396 C141.50648731 106.99871781 141.50648731 106.99871781 143 110 C143.29868988 111.81313946 143.53904299 113.63596514 143.75390625 115.4609375 C143.88603516 116.57210937 144.01816406 117.68328125 144.15429688 118.828125 C144.28900391 119.99859375 144.42371094 121.1690625 144.5625 122.375 C144.77036133 124.11910156 144.77036133 124.11910156 144.98242188 125.8984375 C146 134.56038331 146 134.56038331 146 138 C145 139 145 139 142.4375 139.0625 C141.633125 139.041875 140.82875 139.02125 140 139 C140 139.66 140 140.32 140 141 C138.75863281 141.26554688 137.51726562 141.53109375 136.23828125 141.8046875 C134.59630478 142.16123096 132.95438041 142.51801444 131.3125 142.875 C130.49587891 143.04902344 129.67925781 143.22304687 128.83789062 143.40234375 C124.69977815 144.30703231 120.92006643 145.37061587 117 147 C115.25856752 147.39414078 113.50780438 147.7493582 111.75 148.0625 C108.57842443 148.42767667 108.57842443 148.42767667 106 150 C104.33382885 150.04063832 102.66611905 150.042721 101 150 C99.80712589 146.12315913 99 143.08378077 99 139 C98.34 139 97.68 139 97 139 C96.49339844 137.67935547 96.49339844 137.67935547 95.9765625 136.33203125 C95.30753906 134.58986328 95.30753906 134.58986328 94.625 132.8125 C94.18414062 131.66394531 93.74328125 130.51539063 93.2890625 129.33203125 C92.50162432 127.29662285 91.68975169 125.27018771 90.8359375 123.26171875 C90 121 90 121 90 118 C88.515 117.505 88.515 117.505 87 117 C86.67 115.35 86.34 113.7 86 112 C85.34 112 84.68 112 84 112 C81 106.25 81 106.25 81 104 C79.515 103.505 79.515 103.505 78 103 C77.67 102.01 77.34 101.02 77 100 C75.515 99.01 75.515 99.01 74 98 C73.67 97.01 73.34 96.02 73 95 C71.9076457 93.83937355 70.80411148 92.68762837 69.65234375 91.5859375 C67.58069183 89.59754346 65.57757893 87.54566191 63.5625 85.5 C60.94812552 82.87250993 58.33372587 80.37536284 55.4375 78.0625 C54.633125 77.381875 53.82875 76.70125 53 76 C53 75.34 53 74.68 53 74 C51.35 73.34 49.7 72.68 48 72 C48 71.34 48 70.68 48 70 C47.175 69.773125 46.35 69.54625 45.5 69.3125 C41.33490514 67.75058943 37.4999057 65.77149893 34 63 C34 62.34 34 61.68 34 61 C33.34 60.9175 32.68 60.835 32 60.75 C28.661507 59.91537675 25.97522806 58.57043128 22.9375 56.98828125 C20.67955749 55.83654848 18.37240176 54.88965066 16 54 C16 53.34 16 52.68 16 52 C15.030625 51.896875 14.06125 51.79375 13.0625 51.6875 C9.30713333 51.15857512 5.92378822 50.01852891 2.35546875 48.765625 C-1.37398219 47.55339882 -5.16143582 46.79208467 -9 46 C-8.67 42.04 -8.34 38.08 -8 34 C-7.34 34 -6.68 34 -6 34 C-5.98582031 33.38898438 -5.97164063 32.77796875 -5.95703125 32.1484375 C-5.38518827 21.17523434 -2.578527 10.64370484 0 0 Z " fill="#FFDE00" transform="translate(288,60)"/>
<path d="M0 0 C2.34599266 3.51898899 2.82676016 6.73237061 3.5 10.8125 C4.32477244 15.7294126 5.37152682 20.27091389 7 25 C7.41470472 26.84569202 7.79126377 28.70046371 8.125 30.5625 C8.29257813 31.47128906 8.46015625 32.38007812 8.6328125 33.31640625 C8.98861996 35.91682883 9.06634541 38.37935628 9 41 C9.66 41 10.32 41 11 41 C11 41.99 11 42.98 11 44 C6.8803623 45.29243536 3.33168317 46.26252625 -1 46 C-1 46.66 -1 47.32 -1 48 C-1.61746094 48.17015625 -2.23492187 48.3403125 -2.87109375 48.515625 C-10.31398282 50.64540148 -17.2069613 53.29390995 -23.875 57.25 C-27 59 -27 59 -30 59 C-30 59.66 -30 60.32 -30 61 C-31.98 61.66 -33.96 62.32 -36 63 C-36 63.66 -36 64.32 -36 65 C-38.90548882 67.04169485 -40.40142046 68 -44 68 C-44.495 69.485 -44.495 69.485 -45 71 C-46.33333333 71.33333333 -47.66666667 71.66666667 -49 72 C-49.495 73.485 -49.495 73.485 -50 75 C-51.671875 76.61328125 -51.671875 76.61328125 -53.75 78.3125 C-57.29651262 81.31534046 -60.09323555 84.38618473 -63 88 C-65.6875 90.875 -65.6875 90.875 -68 93 C-68.66 93 -69.32 93 -70 93 C-70.66 94.65 -71.32 96.3 -72 98 C-72.66 98 -73.32 98 -74 98 C-74.24621094 98.68835938 -74.49242187 99.37671875 -74.74609375 100.0859375 C-76.20697712 103.48101224 -78.08066522 106.51929826 -80.0625 109.625 C-82.92816537 114.10772343 -82.92816537 114.10772343 -85 119 C-85.66 119 -86.32 119 -87 119 C-87.0825 119.639375 -87.165 120.27875 -87.25 120.9375 C-87.8861968 123.53530359 -88.62757224 125.48078918 -89.75 127.875 C-92.74922808 134.36965199 -94.81391895 141.19985445 -97 148 C-100.96439969 148.09189006 -103.33538943 147.49915887 -107 146 C-109.19864358 145.46971491 -111.40357799 145.00679654 -113.62109375 144.5625 C-116 144 -116 144 -118.87890625 143.03125 C-122.0649555 141.97853786 -125.22336184 141.21773979 -128.5 140.5 C-132.774084 139.56377208 -136.86822581 138.44363195 -141 137 C-141.12022642 131.22913206 -140.91696124 125.70553659 -140 120 C-139.505 119.505 -139.505 119.505 -139 119 C-137.78619229 111.76189262 -137.86611421 104.40077018 -137.90234375 97.0859375 C-137.90446617 95.44245834 -137.90446617 95.44245834 -137.90663147 93.76577759 C-137.91218229 90.30215605 -137.92472541 86.83860166 -137.9375 83.375 C-137.94252136 81.01171969 -137.94708315 78.64843836 -137.95117188 76.28515625 C-137.96213556 70.52341499 -137.97882394 64.7617123 -138 59 C-138.66 59 -139.32 59 -140 59 C-142.29612756 45.3667426 -142.29612756 45.3667426 -142 39 C-137.67213766 37.64844166 -133.3378224 36.31923465 -129 35 C-127.79085937 34.63003906 -126.58171875 34.26007813 -125.3359375 33.87890625 C-118.84892594 31.94976229 -112.75714309 30.46600987 -106 30 C-106 29.34 -106 28.68 -106 28 C-104.68 28 -103.36 28 -102 28 C-99.72371337 36.28745132 -97.51434102 44.53164559 -96 53 C-95.34 53 -94.68 53 -94 53 C-93.73832031 52.40058594 -93.47664063 51.80117187 -93.20703125 51.18359375 C-91.92779812 48.86938236 -90.73749558 47.70340555 -88.6875 46.0625 C-86.55534553 44.31046323 -84.61861645 42.60830878 -82.6875 40.625 C-71.80952381 30 -71.80952381 30 -67 30 C-66.505 28.515 -66.505 28.515 -66 27 C-65.01 26.67 -64.02 26.34 -63 26 C-62.67 25.34 -62.34 24.68 -62 24 C-59.37418862 22.42451317 -58.12900213 22 -55 22 C-55 21.34 -55 20.68 -55 20 C-49.375 17 -49.375 17 -46 17 C-46 16.34 -46 15.68 -46 15 C-43.09399739 13.74335022 -41.20395416 13 -38 13 C-38 12.34 -38 11.68 -38 11 C-36.56445975 10.49440092 -35.1264798 9.9957251 -33.6875 9.5 C-32.88699219 9.2215625 -32.08648437 8.943125 -31.26171875 8.65625 C-29 8 -29 8 -26 8 C-26 7.34 -26 6.68 -26 6 C-25.31035156 5.81824219 -24.62070313 5.63648437 -23.91015625 5.44921875 C-19.27455403 4.20924285 -14.7061455 2.93180982 -10.1875 1.3125 C-6.68046569 0.12463354 -3.73392704 -0.54642835 0 0 Z " fill="#FFDE00" transform="translate(206,62)"/>
</svg>
